<svg width="70" height="20" viewBox="0 0 70 20" fill="none" xmlns="http://www.w3.org/2000/svg">
<path d="M8.94824 5.04688V15H7.06152L2.83008 8.0957V15H0.950195V5.04688H2.83008L7.0752 11.958V5.04688H8.94824ZM17.039 13.5234V15H11.748V13.5234H17.039ZM12.3222 5.04688V15H10.4423V5.04688H12.3222ZM16.3486 9.15527V10.5977H11.748V9.15527H16.3486ZM17.0185 5.04688V6.53027H11.748V5.04688H17.0185ZM19.4217 5.04688L21.411 8.59473L23.4071 5.04688H25.5672L22.6141 9.98242L25.6424 15H23.4618L21.411 11.3838L19.367 15H17.1795L20.2079 9.98242L17.2547 5.04688H19.4217ZM30.6502 5.04688V15H28.7771V5.04688H30.6502ZM33.74 5.04688V6.53027H25.7214V5.04688H33.74Z" fill="black"/>
<path fill-rule="evenodd" clip-rule="evenodd" d="M60.248 1.43948C59.9385 1.16441 59.4646 1.19243 59.1895 1.50198C58.9145 1.81157 58.9424 2.28545 59.252 2.56057L66.7783 9.25002H41.75C41.3358 9.25002 41 9.58581 41 10C41.0001 10.4142 41.3358 10.75 41.75 10.75H66.7783L59.252 17.4395C58.9425 17.7146 58.9144 18.1885 59.1895 18.4981C59.4646 18.8075 59.9385 18.8355 60.248 18.5606L69.248 10.5606L69.8789 10L69.248 9.43948L60.248 1.43948Z" fill="black"/>
</svg>
