<svg width="180" height="33" viewBox="0 0 180 33" fill="none" xmlns="http://www.w3.org/2000/svg">
<g clip-path="url(#clip0_250_404)">
<path d="M74.1743 19.0934L73.4248 22.871H70.3888L71.1572 19.0181L68.4248 12.207H71.4798L73.1686 16.4557L76.6032 12.207H79.6867L74.1743 19.0934Z" fill="white"/>
<path d="M78.7568 18.3965C78.7568 14.6943 81.5177 12 85.4646 12C88.7663 12 90.8062 13.9312 90.8062 16.6914C90.8062 20.3937 88.0453 23.0879 84.0984 23.0879C80.7967 23.0879 78.7568 21.1567 78.7568 18.3965ZM87.7322 16.8704C87.7322 15.4573 86.8119 14.4964 85.199 14.4964C83.0927 14.4964 81.8213 16.2015 81.8213 18.2175C81.8213 19.6306 82.7417 20.5915 84.3546 20.5915C86.4608 20.5915 87.7322 18.8864 87.7322 16.8704Z" fill="white"/>
<path d="M103.633 12.207L101.489 22.871H98.9845L95.4361 17.0209L94.2501 22.871H91.271L93.4152 12.207H95.92L99.4778 18.0383L100.645 12.207H103.624H103.633Z" fill="white"/>
<path d="M111.963 17.3132H114.648L113.747 21.8067C112.647 22.6263 111.138 23.0879 109.516 23.0879C106.233 23.0879 104.117 21.185 104.117 18.3965C104.117 14.6943 106.869 12 110.948 12C113.093 12 114.658 12.6877 115.626 13.9689L113.444 15.674C112.741 14.8073 111.907 14.4964 110.806 14.4964C108.595 14.4964 107.182 16.0697 107.182 18.1987C107.182 19.6306 108.168 20.5915 109.933 20.5915C110.426 20.5915 110.901 20.5161 111.356 20.3371L111.973 17.3226L111.963 17.3132Z" fill="white"/>
<path d="M120.379 18.3965C120.379 14.6943 123.131 12 127.116 12C129.099 12 130.702 12.716 131.47 14.0066L129.279 15.7399C128.776 14.9298 127.989 14.487 126.916 14.487C124.829 14.487 123.444 16.0885 123.444 18.1893C123.444 19.6212 124.431 20.5821 126.072 20.5821C127.04 20.5821 127.932 20.2147 128.7 19.348L130.493 21.1002C129.279 22.551 127.704 23.0785 125.778 23.0785C122.476 23.0785 120.379 21.1756 120.379 18.3871V18.3965Z" fill="white"/>
<path d="M143.595 12.207L141.451 22.871H138.415L139.241 18.726H135.113L134.288 22.871H131.252L133.396 12.207H136.432L135.635 16.2013H139.762L140.559 12.207H143.595Z" fill="white"/>
<path d="M151.338 20.7985H146.765L145.522 22.871H142.315L149.203 12.207H152.192L154.782 22.871H151.755L151.328 20.7985H151.338ZM150.882 18.5753L150.161 15.118L148.102 18.5753H150.882Z" fill="white"/>
<path d="M168.017 12.207L165.873 22.871H163.368L159.819 17.0209L158.633 22.871H155.654L157.799 12.207H160.303L163.861 18.0383L165.028 12.207H168.007H168.017Z" fill="white"/>
<path d="M176.347 17.3132H179.032L178.13 21.8067C177.03 22.6263 175.521 23.0879 173.899 23.0879C170.616 23.0879 168.5 21.185 168.5 18.3965C168.5 14.6943 171.252 12 175.332 12C177.476 12 179.041 12.6877 180.009 13.9689L177.827 15.674C177.125 14.8073 176.29 14.4964 175.189 14.4964C172.979 14.4964 171.565 16.0697 171.565 18.1987C171.565 19.6306 172.552 20.5915 174.316 20.5915C174.81 20.5915 175.284 20.5161 175.74 20.3371L176.356 17.3226L176.347 17.3132Z" fill="white"/>
<path d="M27.761 9.84461C28.89 6.9431 30.427 4.75754 32.2582 3.29736C31.8976 3.39157 31.5276 3.48577 31.1671 3.57998L19.1462 16.3071L14.6301 29.053L7.98871 28.7704L13.0456 16.4484L12.5618 11.5215C3.67182 17.0324 -1.44203 23.5609 0.360626 28.1392C2.82742 34.4038 17.2771 34.6488 32.6472 28.695C34.5542 27.9602 36.3853 27.1595 38.1215 26.3116C36.7838 26.1798 35.9204 26.1986 34.5352 25.6522C27.9318 23.0333 24.7724 17.5317 27.761 9.85403" fill="white"/>
<path d="M56.0151 6.56604C54.6394 3.05219 49.4876 1.44128 42.5331 1.73332C42.9126 1.85579 43.2921 1.98767 43.6811 2.1384C45.0284 2.67537 46.6982 3.25002 47.9316 4.49353L46.1479 7.7907C44.3073 6.29284 43.6621 6.26458 42.201 5.68051C37.9885 4.01308 33.9657 6.54719 32.1536 11.2009C30.3509 15.8264 31.5749 20.3294 35.9297 22.0533C37.5331 22.6939 38.2637 23.0142 39.4401 22.8352L38.6906 26.0005C50.6451 20.0468 58.1308 11.9451 56.0151 6.54719" fill="white"/>
<path d="M22.8654 6.34961C21.0722 7.07499 19.3455 7.84747 17.7041 8.66705L17.9413 11.8606L22.8654 6.34961Z" fill="white"/>
<path d="M31.1672 3.57983L34.3076 0.254395H28.3209L22.875 6.34946C23.1596 6.23641 23.4443 6.11394 23.7384 6.01032C26.2621 5.03059 28.7574 4.22984 31.1767 3.57983" fill="white"/>
<path d="M17.059 0.000143154H11.4233L12.5524 11.5214C14.1558 10.5323 15.8731 9.57137 17.7042 8.65758L17.059 -0.00927734V0.000143154Z" fill="white"/>
</g>
<defs>
<clipPath id="clip0_250_404">
<rect width="180" height="33" fill="white"/>
</clipPath>
</defs>
</svg>
