<svg width="223" height="41" viewBox="0 0 223 41" fill="none" xmlns="http://www.w3.org/2000/svg">
<g clip-path="url(#clip0_395_1419)">
<path d="M91.8945 23.7223L90.9659 28.4157H87.2046L88.1567 23.6287L84.7715 15.1665H88.5563L90.6486 20.4451L94.9036 15.1665H98.7237L91.8945 23.7223Z" fill="white"/>
<path d="M97.5713 22.8564C97.5713 18.2566 100.992 14.9092 105.881 14.9092C109.972 14.9092 112.499 17.3086 112.499 20.7379C112.499 25.3377 109.079 28.6851 104.189 28.6851C100.098 28.6851 97.5713 26.2857 97.5713 22.8564ZM108.691 20.9603C108.691 19.2046 107.551 18.0108 105.552 18.0108C102.943 18.0108 101.368 20.1293 101.368 22.634C101.368 24.3896 102.508 25.5835 104.506 25.5835C107.116 25.5835 108.691 23.465 108.691 20.9603Z" fill="white"/>
<path d="M128.391 15.1665L125.734 28.4157H122.631L118.235 21.1474L116.766 28.4157H113.075L115.732 15.1665H118.835L123.243 22.4114L124.688 15.1665H128.379H128.391Z" fill="white"/>
<path d="M138.711 21.5104H142.037L140.921 27.0933C139.557 28.1116 137.688 28.6851 135.678 28.6851C131.611 28.6851 128.99 26.3208 128.99 22.8564C128.99 18.2566 132.399 14.9092 137.453 14.9092C140.11 14.9092 142.049 15.7636 143.248 17.3554L140.545 19.4738C139.675 18.397 138.64 18.0108 137.277 18.0108C134.538 18.0108 132.787 19.9654 132.787 22.6106C132.787 24.3896 134.009 25.5835 136.196 25.5835C136.807 25.5835 137.394 25.4898 137.959 25.2674L138.723 21.5221L138.711 21.5104Z" fill="white"/>
<path d="M149.138 22.8564C149.138 18.2566 152.546 14.9092 157.483 14.9092C159.94 14.9092 161.926 15.7987 162.878 17.4022L160.163 19.5558C159.54 18.5492 158.565 17.9991 157.236 17.9991C154.65 17.9991 152.934 19.9888 152.934 22.5989C152.934 24.3779 154.157 25.5718 156.19 25.5718C157.389 25.5718 158.494 25.1153 159.446 24.0385L161.668 26.2155C160.163 28.0179 158.212 28.6734 155.826 28.6734C151.735 28.6734 149.138 26.3091 149.138 22.8447V22.8564Z" fill="white"/>
<path d="M177.9 15.1665L175.243 28.4157H171.482L172.504 23.2658H167.391L166.369 28.4157H162.607L165.264 15.1665H169.025L168.038 20.1291H173.151L174.138 15.1665H177.9Z" fill="white"/>
<path d="M187.491 25.8408H181.825L180.285 28.4157H176.312L184.846 15.1665H188.549L191.757 28.4157H188.008L187.479 25.8408H187.491ZM186.927 23.0786L186.033 18.7831L183.483 23.0786H186.927Z" fill="white"/>
<path d="M208.155 15.1665L205.498 28.4157H202.395L197.999 21.1474L196.53 28.4157H192.839L195.495 15.1665H198.598L203.006 22.4114L204.452 15.1665H208.143H208.155Z" fill="white"/>
<path d="M218.476 21.5104H221.802L220.685 27.0933C219.322 28.1116 217.453 28.6851 215.443 28.6851C211.376 28.6851 208.755 26.3208 208.755 22.8564C208.755 18.2566 212.164 14.9092 217.218 14.9092C219.874 14.9092 221.814 15.7636 223.013 17.3554L220.309 19.4738C219.439 18.397 218.405 18.0108 217.042 18.0108C214.303 18.0108 212.551 19.9654 212.551 22.6106C212.551 24.3896 213.774 25.5835 215.96 25.5835C216.571 25.5835 217.159 25.4898 217.723 25.2674L218.487 21.5221L218.476 21.5104Z" fill="white"/>
<path d="M34.3926 12.2311C35.7913 8.62623 37.6955 5.91084 39.964 4.09668C39.5174 4.21372 39.059 4.33076 38.6123 4.44781L23.7198 20.2603L18.1248 36.0961L9.89689 35.745L16.1619 20.4358L15.5624 14.3145C4.54874 21.1615 -1.78675 29.2725 0.446542 34.9608C3.50262 42.7441 21.4042 43.0484 40.446 35.6513C42.8085 34.7384 45.0771 33.7436 47.2281 32.6902C45.5708 32.5263 44.5011 32.5497 42.785 31.8709C34.6041 28.6171 30.69 21.7818 34.3926 12.2428" fill="white"/>
<path d="M69.3968 8.15786C67.6924 3.79217 61.3099 1.79075 52.6941 2.15358C53.1643 2.30573 53.6345 2.46959 54.1164 2.65686C55.7855 3.324 57.8542 4.03796 59.3822 5.58292L57.1725 9.67941C54.8921 7.81844 54.0929 7.78332 52.2827 7.05766C47.0639 4.98601 42.0801 8.13445 39.8351 13.9164C37.6018 19.6631 39.1181 25.2578 44.5132 27.3997C46.4997 28.1955 47.4047 28.5935 48.8623 28.3711L47.9337 32.3037C62.7439 24.9066 72.018 14.841 69.3968 8.13445" fill="white"/>
<path d="M28.3279 7.88867C26.1063 8.7899 23.9671 9.74965 21.9336 10.7679L22.2274 14.7357L28.3279 7.88867Z" fill="white"/>
<path d="M38.612 4.44752L42.5026 0.315918H35.0858L28.3389 7.88857C28.6915 7.74812 29.0441 7.59596 29.4085 7.46722C32.5351 6.24998 35.6264 5.25511 38.6238 4.44752" fill="white"/>
<path d="M21.1343 -1.4496e-05H14.1523L15.5511 14.3143C17.5375 13.0853 19.665 11.8915 21.9336 10.7562L21.1343 -0.0117188V-1.4496e-05Z" fill="white"/>
<path d="M39.9756 4.09671C44.5244 2.97311 48.8382 2.31767 52.6936 2.15381L39.9756 4.09671Z" fill="white"/>
</g>
<defs>
<clipPath id="clip0_395_1419">
<rect width="223" height="41" fill="white"/>
</clipPath>
</defs>
</svg>
