<svg width="600" height="600" viewBox="0 0 600 600" fill="none" xmlns="http://www.w3.org/2000/svg">
<g clip-path="url(#clip0_1523_2)">
<path d="M295.876 235.853C306.663 207.96 321.337 186.881 339.025 172.697C335.535 173.568 332.045 174.519 328.555 175.391L213.384 297.979L170.077 420.884L106.463 418.19L154.847 299.485L150.247 252.018C65.1382 305.111 16.1988 368.029 33.4109 412.167C56.9684 472.55 195.458 474.928 342.673 417.556C360.917 410.424 378.446 402.738 395.103 394.576C382.253 393.308 374.004 393.546 360.758 388.236C297.462 362.958 267.242 310.024 295.876 235.932" fill="#2765B0"/>
<path d="M566.51 204.235C553.264 170.399 504.007 154.788 437.3 157.72C440.949 158.909 444.597 160.176 448.325 161.603C461.175 166.754 477.197 172.301 489.016 184.266L471.883 216.122C454.274 201.699 448.087 201.383 434.127 195.836C393.834 179.749 355.285 204.235 337.914 249.086C320.702 293.621 332.362 337.046 374.083 353.687C389.471 359.867 396.451 362.879 407.714 361.294L400.576 391.802C515.032 334.431 586.815 256.298 566.51 204.314" fill="#2765B0"/>
<path d="M248.998 202.175C231.786 209.148 215.288 216.597 199.583 224.442L201.883 255.188L249.078 202.096L248.998 202.175Z" fill="#2765B0"/>
<path d="M328.555 175.47L358.616 143.457H301.269L249.078 202.175C251.774 201.066 254.551 199.956 257.327 198.847C281.44 189.417 305.394 181.651 328.555 175.47Z" fill="#2765B0"/>
<path d="M193.396 141H139.38L150.247 252.098C165.555 242.51 182.054 233.317 199.583 224.522L193.396 141Z" fill="#2765B0"/>
</g>
<defs>
<clipPath id="clip0_1523_2">
<rect width="540" height="318" fill="white" transform="translate(30 141)"/>
</clipPath>
</defs>
</svg>
