<svg width="69" height="20" viewBox="0 0 69 20" fill="none" xmlns="http://www.w3.org/2000/svg">
<path fill-rule="evenodd" clip-rule="evenodd" d="M9.63086 1.43948C9.94045 1.16441 10.4143 1.19243 10.6895 1.50198C10.9644 1.81157 10.9365 2.28545 10.627 2.56057L3.10059 9.25002H28.1289C28.5431 9.25002 28.8789 9.58581 28.8789 10C28.8788 10.4142 28.5431 10.75 28.1289 10.75H3.10059L10.627 17.4395C10.9364 17.7146 10.9645 18.1885 10.6895 18.4981C10.4143 18.8075 9.94042 18.8355 9.63086 18.5606L0.630859 10.5606L0 10L0.630859 9.43948L9.63086 1.43948Z" fill="black"/>
<path d="M39.6572 11.3701H37.0938V9.89355H39.6572C40.0765 9.89355 40.416 9.8252 40.6758 9.68848C40.9401 9.5472 41.1338 9.35579 41.2568 9.11426C41.3799 8.86816 41.4414 8.58789 41.4414 8.27344C41.4414 7.9681 41.3799 7.68327 41.2568 7.41895C41.1338 7.15462 40.9401 6.94043 40.6758 6.77637C40.416 6.6123 40.0765 6.53027 39.6572 6.53027H37.709V15H35.8291V5.04688H39.6572C40.432 5.04688 41.0928 5.18587 41.6396 5.46387C42.1911 5.7373 42.6104 6.11784 42.8975 6.60547C43.1891 7.08854 43.335 7.63997 43.335 8.25977C43.335 8.90234 43.1891 9.45605 42.8975 9.9209C42.6104 10.3857 42.1911 10.7435 41.6396 10.9941C41.0928 11.2448 40.432 11.3701 39.6572 11.3701ZM44.3915 5.04688H48.0077C48.7642 5.04688 49.4137 5.16081 49.956 5.38867C50.4983 5.61654 50.9153 5.95378 51.207 6.40039C51.4986 6.84701 51.6445 7.39616 51.6445 8.04785C51.6445 8.56283 51.5533 9.00944 51.371 9.3877C51.1887 9.76595 50.9312 10.0827 50.5986 10.3379C50.2704 10.5931 49.8831 10.7936 49.4364 10.9395L48.8486 11.2402H45.6562L45.6425 9.75684H48.0282C48.4156 9.75684 48.7369 9.68848 48.9921 9.55176C49.2473 9.41504 49.4387 9.22591 49.5663 8.98438C49.6985 8.74284 49.7646 8.46712 49.7646 8.15723C49.7646 7.82454 49.7008 7.53743 49.5732 7.2959C49.4456 7.0498 49.2519 6.86068 48.9921 6.72852C48.7323 6.59635 48.4042 6.53027 48.0077 6.53027H46.2714V15H44.3915V5.04688ZM50.0107 15L47.707 10.543L49.6962 10.5361L52.0273 14.9043V15H50.0107ZM59.4686 13.5234V15H54.1776V13.5234H59.4686ZM54.7518 5.04688V15H52.8719V5.04688H54.7518ZM58.7782 9.15527V10.5977H54.1776V9.15527H58.7782ZM59.4481 5.04688V6.53027H54.1776V5.04688H59.4481ZM63.8543 13.0518L66.3357 5.04688H68.4207L64.907 15H63.5193L63.8543 13.0518ZM61.5642 5.04688L64.032 13.0518L64.3875 15H62.9861L59.4861 5.04688H61.5642Z" fill="black"/>
</svg>
