<svg width="300" height="55" viewBox="0 0 300 55" fill="none" xmlns="http://www.w3.org/2000/svg">
<g clip-path="url(#clip0_320_33)">
<path d="M123.625 31.8225L122.375 38.1186H117.315L118.596 31.6969L114.042 20.3452H119.134L121.948 27.4263L127.673 20.3452H132.812L123.625 31.8225Z" fill="#0067B3"/>
<path d="M131.262 30.6609C131.262 24.4904 135.864 20 142.442 20C147.945 20 151.344 23.2187 151.344 27.819C151.344 33.9894 146.743 38.4799 140.165 38.4799C134.662 38.4799 131.262 35.2612 131.262 30.6609ZM146.221 28.1173C146.221 25.7622 144.687 24.1607 141.999 24.1607C138.489 24.1607 136.37 27.0026 136.37 30.3625C136.37 32.7177 137.904 34.3192 140.592 34.3192C144.102 34.3192 146.221 31.4773 146.221 28.1173Z" fill="#0067B3"/>
<path d="M172.723 20.3452L169.15 38.1186H164.975L159.061 28.3683L157.084 38.1186H152.119L155.693 20.3452H159.867L165.797 30.064L167.742 20.3452H172.707H172.723Z" fill="#0067B3"/>
<path d="M186.607 28.8553H191.082L189.58 36.3446C187.745 37.7105 185.231 38.4799 182.527 38.4799C177.056 38.4799 173.53 35.3083 173.53 30.6609C173.53 24.4904 178.115 20 184.915 20C188.489 20 191.098 21.1462 192.711 23.2815L189.074 26.1233C187.904 24.6788 186.512 24.1607 184.678 24.1607C180.993 24.1607 178.637 26.7828 178.637 30.3311C178.637 32.7177 180.282 34.3192 183.223 34.3192C184.045 34.3192 184.836 34.1935 185.595 33.8952L186.623 28.871L186.607 28.8553Z" fill="#0067B3"/>
<path d="M200.633 30.6609C200.633 24.4904 205.219 20 211.86 20C215.165 20 217.837 21.1933 219.118 23.3443L215.465 26.2332C214.627 24.883 213.315 24.145 211.528 24.145C208.049 24.145 205.74 26.8142 205.74 30.3154C205.74 32.702 207.385 34.3035 210.12 34.3035C211.733 34.3035 213.22 33.6911 214.501 32.2466L217.489 35.167C215.465 37.5849 212.84 38.4642 209.63 38.4642C204.127 38.4642 200.633 35.2926 200.633 30.6452V30.6609Z" fill="#0067B3"/>
<path d="M239.327 20.3452L235.753 38.1186H230.693L232.069 31.2102H225.19L223.814 38.1186H218.754L222.328 20.3452H227.388L226.06 27.0024H232.938L234.267 20.3452H239.327Z" fill="#0067B3"/>
<path d="M252.23 34.6644H244.608L242.537 38.1186H237.192L248.672 20.3452H253.653L257.97 38.1186H252.926L252.214 34.6644H252.23ZM251.471 30.959L250.269 25.1968L246.838 30.959H251.471Z" fill="#0067B3"/>
<path d="M280.029 20.3452L276.455 38.1186H272.281L266.367 28.3683L264.39 38.1186H259.425L262.999 20.3452H267.173L273.103 30.064L275.048 20.3452H280.013H280.029Z" fill="#0067B3"/>
<path d="M293.912 28.8553H298.387L296.885 36.3446C295.051 37.7105 292.536 38.4799 289.832 38.4799C284.361 38.4799 280.835 35.3083 280.835 30.6609C280.835 24.4904 285.421 20 292.22 20C295.794 20 298.403 21.1462 300.016 23.2815L296.379 26.1233C295.209 24.6788 293.817 24.1607 291.983 24.1607C288.299 24.1607 285.942 26.7828 285.942 30.3311C285.942 32.7177 287.587 34.3192 290.528 34.3192C291.35 34.3192 292.141 34.1935 292.9 33.8952L293.928 28.871L293.912 28.8553Z" fill="#0067B3"/>
<path d="M46.2682 16.4072C48.1499 11.5713 50.7116 7.92875 53.7634 5.49512C53.1626 5.65213 52.5458 5.80913 51.945 5.96614L31.9102 27.178L24.3833 48.4212L13.3144 47.9502L21.7426 27.4135L20.9361 19.2019C6.11954 28.3869 -2.40355 39.2676 0.60088 46.8982C4.7122 57.3393 28.7951 57.7475 54.4118 47.8246C57.5901 46.5999 60.642 45.2653 63.5357 43.8522C61.3061 43.6324 59.8672 43.6638 57.5585 42.7532C46.5528 38.3884 41.2872 29.2191 46.2682 16.4229" fill="#2765B0"/>
<path d="M93.3586 10.9436C91.0658 5.08715 82.4794 2.4023 70.8887 2.88903C71.5212 3.09314 72.1537 3.31295 72.802 3.56417C75.0474 4.45911 77.8305 5.41686 79.8861 7.48937L76.9133 12.9847C73.8457 10.4882 72.7704 10.4411 70.3352 9.46768C63.3144 6.68863 56.6097 10.9122 53.5895 18.6684C50.5851 26.3775 52.6249 33.8825 59.883 36.7557C62.5553 37.8234 63.7729 38.3572 65.7337 38.0589L64.4845 43.3344C84.4086 33.4114 96.8849 19.9087 93.3586 10.9122" fill="#2765B0"/>
<path d="M38.109 10.5825C35.1204 11.7915 32.2424 13.079 29.5068 14.4449L29.9022 19.7675L38.109 10.5825Z" fill="#2765B0"/>
<path d="M51.9449 5.96622L57.1789 0.423828H47.201L38.1245 10.5823C38.5989 10.3939 39.0733 10.1897 39.5635 10.017C43.7697 8.38415 47.9284 7.04958 51.9607 5.96622" fill="#2765B0"/>
<path d="M28.4314 7.58275e-05H19.0386L20.9203 19.2022C23.5927 17.5536 26.4548 15.9521 29.5066 14.4291L28.4314 -0.015625V7.58275e-05Z" fill="#2765B0"/>
<path d="M53.7793 5.4955C59.8988 3.98822 65.7021 3.10897 70.8887 2.88916Z" fill="white"/>
</g>
<defs>
<clipPath id="clip0_320_33">
<rect width="300" height="55" fill="white"/>
</clipPath>
</defs>
</svg>
