<svg width="180" height="33" viewBox="0 0 180 33" fill="none" xmlns="http://www.w3.org/2000/svg">
<g clip-path="url(#clip0_389_684)">
<path d="M74.1743 19.0937L73.4248 22.8713H70.3888L71.1572 19.0183L68.4248 12.2073H71.4798L73.1686 16.4559L76.6032 12.2073H79.6867L74.1743 19.0937Z" fill="#333333"/>
<path d="M78.7568 18.3965C78.7568 14.6943 81.5177 12 85.4646 12C88.7663 12 90.8062 13.9312 90.8062 16.6914C90.8062 20.3937 88.0453 23.0879 84.0984 23.0879C80.7967 23.0879 78.7568 21.1567 78.7568 18.3965ZM87.7322 16.8704C87.7322 15.4573 86.8119 14.4964 85.199 14.4964C83.0927 14.4964 81.8213 16.2015 81.8213 18.2175C81.8213 19.6306 82.7417 20.5915 84.3546 20.5915C86.4608 20.5915 87.7322 18.8864 87.7322 16.8704Z" fill="#333333"/>
<path d="M103.634 12.2073L101.49 22.8713H98.985L95.4366 17.0211L94.2506 22.8713H91.2715L93.4157 12.2073H95.9204L99.4783 18.0386L100.645 12.2073H103.624H103.634Z" fill="#333333"/>
<path d="M111.963 17.3132H114.648L113.747 21.8067C112.647 22.6263 111.138 23.0879 109.516 23.0879C106.233 23.0879 104.117 21.185 104.117 18.3965C104.117 14.6943 106.869 12 110.948 12C113.093 12 114.658 12.6877 115.626 13.9689L113.444 15.674C112.741 14.8073 111.907 14.4964 110.806 14.4964C108.595 14.4964 107.182 16.0697 107.182 18.1987C107.182 19.6306 108.168 20.5915 109.933 20.5915C110.426 20.5915 110.901 20.5161 111.356 20.3371L111.973 17.3226L111.963 17.3132Z" fill="#333333"/>
<path d="M120.379 18.3965C120.379 14.6943 123.13 12 127.115 12C129.098 12 130.701 12.716 131.47 14.0066L129.278 15.7399C128.775 14.9298 127.988 14.487 126.916 14.487C124.829 14.487 123.443 16.0885 123.443 18.1893C123.443 19.6212 124.43 20.5821 126.072 20.5821C127.039 20.5821 127.931 20.2147 128.7 19.348L130.493 21.1002C129.278 22.551 127.703 23.0785 125.777 23.0785C122.476 23.0785 120.379 21.1756 120.379 18.3871V18.3965Z" fill="#333333"/>
<path d="M143.595 12.2073L141.451 22.8713H138.415L139.241 18.7263H135.113L134.288 22.8713H131.252L133.396 12.2073H136.432L135.635 16.2016H139.762L140.559 12.2073H143.595Z" fill="#333333"/>
<path d="M151.337 20.7988H146.764L145.521 22.8713H142.314L149.202 12.2073H152.191L154.781 22.8713H151.755L151.328 20.7988H151.337ZM150.882 18.5755L150.161 15.1182L148.102 18.5755H150.882Z" fill="#333333"/>
<path d="M168.017 12.2073L165.873 22.8713H163.368L159.819 17.0211L158.633 22.8713H155.654L157.799 12.2073H160.303L163.861 18.0386L165.028 12.2073H168.007H168.017Z" fill="#333333"/>
<path d="M176.347 17.3132H179.032L178.131 21.8067C177.03 22.6263 175.522 23.0879 173.899 23.0879C170.617 23.0879 168.501 21.185 168.501 18.3965C168.501 14.6943 171.252 12 175.332 12C177.476 12 179.042 12.6877 180.01 13.9689L177.827 15.674C177.125 14.8073 176.29 14.4964 175.19 14.4964C172.979 14.4964 171.565 16.0697 171.565 18.1987C171.565 19.6306 172.552 20.5915 174.317 20.5915C174.81 20.5915 175.285 20.5161 175.74 20.3371L176.357 17.3226L176.347 17.3132Z" fill="#333333"/>
<path d="M27.761 9.84443C28.89 6.94291 30.427 4.75736 32.2582 3.29718C31.8976 3.39139 31.5276 3.48559 31.1671 3.5798L19.1462 16.3069L14.6301 29.0528L7.98871 28.7702L13.0456 16.4482L12.5618 11.5213C3.67182 17.0323 -1.44203 23.5607 0.360626 28.139C2.82742 34.4037 17.2771 34.6486 32.6472 28.6948C34.5542 27.96 36.3853 27.1593 38.1215 26.3115C36.7838 26.1796 35.9204 26.1984 34.5352 25.652C27.9318 23.0331 24.7724 17.5316 27.761 9.85385" fill="#333333"/>
<path d="M56.0156 6.5661C54.6399 3.05225 49.4881 1.44135 42.5336 1.73338C42.9131 1.85585 43.2926 1.98773 43.6816 2.13846C45.0289 2.67543 46.6987 3.25008 47.9321 4.49359L46.1484 7.79076C44.3078 6.2929 43.6626 6.26464 42.2015 5.68057C37.989 4.01314 33.9662 6.54726 32.1541 11.201C30.3514 15.8264 31.5753 20.3294 35.9302 22.0534C37.5336 22.694 38.2641 23.0143 39.4406 22.8353L38.6911 26.0006C50.6456 20.0468 58.1313 11.9452 56.0156 6.54726" fill="#333333"/>
<path d="M22.8654 6.34943C21.0722 7.0748 19.3455 7.84729 17.7041 8.66687L17.9413 11.8604L22.8654 6.34943Z" fill="#333333"/>
<path d="M31.1672 3.57977L34.3076 0.254333H28.3209L22.875 6.34939C23.1596 6.23635 23.4443 6.11388 23.7384 6.01026C26.2621 5.03053 28.7574 4.22978 31.1767 3.57977" fill="#333333"/>
<path d="M17.0585 2.10833e-05H11.4229L12.5519 11.5213C14.1553 10.5321 15.8726 9.57125 17.7037 8.65746L17.0585 -0.00939941V2.10833e-05Z" fill="#333333"/>
<path d="M32.2676 3.2972C35.9393 2.39283 39.4213 1.86529 42.5332 1.7334L32.2676 3.2972Z" fill="#333333"/>
</g>
<defs>
<clipPath id="clip0_389_684">
<rect width="180" height="33" fill="white"/>
</clipPath>
</defs>
</svg>
